<?xml version="1.0" encoding="utf-8"?>
<!-- Generator: Adobe Illustrator 22.0.1, SVG Export Plug-In . SVG Version: 6.00 Build 0)  -->
<svg version="1.1" xmlns="http://www.w3.org/2000/svg" xmlns:xlink="http://www.w3.org/1999/xlink" width="18px" height="24px"
	 viewBox="0 0 18 24" style="enable-background:new 0 0 18 24;" xml:space="preserve">
<style type="text/css">
	.st0{fill:#FF0000;}
	.st1{fill:#333333;}
</style>
<g id="Layer_1">
	<path class="st0" d="M7.4,2.5C9,2.1,10.7,2.3,12.2,3c1.4,0.6,2.5,1.7,3.3,3.1c0.7,1.3,1.1,2.9,0.9,4.4c-0.2,1.3-0.8,2.5-1.5,3.6
		c-0.6,1-1.4,1.8-2.1,2.7c-1.2,1.5-2.5,3-3.8,4.5c-1.5-1.6-2.9-3.1-4.3-4.8c-0.9-1.1-1.9-2.2-2.4-3.5c-0.6-1.3-0.8-2.8-0.6-4.3
		c0.2-1.5,0.9-3,2-4.1C4.7,3.6,6,2.8,7.4,2.5 M8.7,6.2C7.6,6.3,6.6,7,6,7.9c-0.5,0.7-0.7,1.6-0.5,2.5c0.1,0.9,0.6,1.8,1.3,2.3
		c0.6,0.5,1.3,0.7,2,0.8c0.7,0,1.5-0.1,2.1-0.5c0.6-0.3,1.1-0.9,1.4-1.5c0.4-0.8,0.5-1.8,0.3-2.7c-0.3-0.9-0.9-1.7-1.7-2.2
		C10.2,6.3,9.4,6.2,8.7,6.2z"/>
	<path class="st1" d="M2.8,19.4c1.1-0.3,2.2-0.5,3.3-0.6c0.2,0.2,0.4,0.4,0.6,0.6c-0.7,0-1.5,0.1-2.2,0.2c-0.6,0.1-1.2,0.2-1.8,0.4
		c-0.3,0.1-0.5,0.2-0.7,0.4c-0.1,0.1-0.2,0.3-0.1,0.5c0.1,0.3,0.3,0.4,0.6,0.6c0.5,0.3,1,0.4,1.5,0.6c0.9,0.2,1.8,0.3,2.7,0.4
		c1.8,0.2,3.6,0.1,5.4-0.1c0.9-0.1,1.9-0.3,2.8-0.6c0.4-0.1,0.7-0.3,1.1-0.5c0.2-0.1,0.4-0.4,0.3-0.6c0-0.2-0.2-0.4-0.4-0.5
		c-0.3-0.2-0.7-0.3-1-0.4c-1-0.3-2.1-0.4-3.2-0.4c0.2-0.2,0.4-0.4,0.6-0.6c0.9,0.1,1.8,0.3,2.7,0.5c0.7,0.2,1.4,0.4,2,0.7
		c0.3,0.2,0.7,0.4,0.9,0.8c0.1,0.3,0.1,0.6,0,0.8c-0.2,0.4-0.6,0.6-1,0.8c-0.7,0.3-1.4,0.5-2.1,0.7c-1.7,0.4-3.4,0.5-5.2,0.6
		c-1.8,0-3.7-0.1-5.5-0.5c-0.9-0.2-1.8-0.4-2.6-0.8c-0.3-0.2-0.7-0.4-0.9-0.7c-0.2-0.2-0.3-0.5-0.2-0.8c0.1-0.4,0.4-0.6,0.7-0.8
		C1.4,19.8,2.1,19.6,2.8,19.4z"/>
</g>
<g id="Layer_2">
</g>
</svg>
